<svg xmlns="http://www.w3.org/2000/svg" version="1.1" xmlns:xlink="http://www.w3.org/1999/xlink" xmlns:svgjs="http://svgjs.com/svgjs" id="BgenPttrnSvgRootPreview" width="100%" height="100%"><defs><pattern x="0" y="0" width="1" height="1" patternUnits="userSpaceOnUse" id="BgenPttrnLayer1"><g id="PatternRootContent1"><g id="BgenPttrnLayer1background"><rect width="1" height="1" id="BgenPttrnBackground1" class="color_1 fill_color_1" fill="#b0b0b0"></rect></g></g></pattern><pattern x="0" y="0" width="90" height="160" patternUnits="userSpaceOnUse" id="BgenPttrnLayer2" patternTransform="matrix(0.7,0,0,0.7,0,0)"><g id="PatternRootContent2"><g id="BgenPttrnLayer2Element3"><use xlink:href="#BgenPttrnElement3" x="26.40329360961914" y="-97.10531616210938" transform="translate(90, -40) scale(1) translate(-90, 40) rotate(0, 90, -40)"></use><use xlink:href="#BgenPttrnElement3" x="-63.59670639038086" y="-97.10531616210938" transform="translate(0, -40) scale(1) translate(0, 40) rotate(0, 0, -40)"></use><use xlink:href="#BgenPttrnElement3" x="-18.59670639038086" y="-17.105316162109375" transform="translate(45, 40) scale(1) translate(-45, -40) rotate(0, 45, 40)"></use><use xlink:href="#BgenPttrnElement3" x="-108.59670639038086" y="-17.105316162109375" transform="translate(-45, 40) scale(1) translate(45, -40) rotate(0, -45, 40)"></use><use xlink:href="#BgenPttrnElement3" x="71.40329360961914" y="-17.105316162109375" transform="translate(135, 40) scale(1) translate(-135, -40) rotate(0, 135, 40)"></use><use xlink:href="#BgenPttrnElement3" x="26.40329360961914" y="62.894683837890625" transform="translate(90, 120) scale(1) translate(-90, -120) rotate(0, 90, 120)"></use><use xlink:href="#BgenPttrnElement3" x="-63.59670639038086" y="62.894683837890625" transform="translate(0, 120) scale(1) translate(0, -120) rotate(0, 0, 120)"></use><use xlink:href="#BgenPttrnElement3" x="-18.59670639038086" y="142.89468383789062" transform="translate(45, 200) scale(1) translate(-45, -200) rotate(0, 45, 200)"></use><use xlink:href="#BgenPttrnElement3" x="-18.59670639038086" y="142.89468383789062" transform="translate(45, 200) scale(1) translate(-45, -200) rotate(0, 45, 200)"></use></g></g></pattern><symbol id="BgenPttrnElement3"><g class="color_4 fill_color_4" fill="#6b5252"><path d="M91.881,101.71573638916016L70.668,80.50252532958984c-3.905,3.905,-10.237,3.905,-14.142,0l-21.213,21.213C50.934,86.095,76.261,86.095,91.881,101.71573638916016Z" transform="matrix(1,0,0,1,0,0)"></path><path d="M42.527,114.21063232421875L71.505,106.44606018066406c-1.43,-5.335,1.736,-10.818,7.071,-12.247l-7.765,-28.978C76.529,86.559,63.865,108.493,42.527,114.21063232421875Z" transform="matrix(1,0,0,1,0,0)"></path><path d="M56.383,65.22083282470703L48.619,94.1986083984375c5.334,1.429,8.5,6.913,7.071,12.247l28.978,7.765C63.329,108.493,50.666,86.559,56.383,65.22083282470703Z" transform="matrix(1,0,0,1,0,0)"></path><path d="M39.105,103.90510559082031L46.87,74.92750549316406c-5.335,-1.429,-8.501,-6.913,-7.071,-12.247l-28.977,-7.764C32.159,60.634,44.823,82.567,39.105,103.90510559082031Z" transform="matrix(1,0,0,1,0,0)"></path><path d="M3.607,67.41073608398438L24.82,88.62413787841797c3.906,-3.906,10.237,-3.906,14.142,0l21.213,-21.214C44.555,83.032,19.227,83.031,3.607,67.41073608398438Z" transform="matrix(1,0,0,1,0,0)"></path><path d="M52.961,54.91548538208008L23.984,62.68054962158203c1.429,5.334,-1.737,10.818,-7.071,12.247l7.764,28.978C18.959,82.567,31.623,60.634,52.961,54.91548538208008Z" transform="matrix(1,0,0,1,0,0)"></path><path d="M10.821,59.2946891784668L39.799,51.530296325683594c-1.43,-5.334,1.736,-10.818,7.071,-12.247l-7.764,-28.977C44.822,31.644,32.159,53.578,10.821,59.2946891784668Z" transform="matrix(1,0,0,1,0,0)"></path><path d="M24.677,10.305420875549316L16.912,39.28339385986328c5.336,1.429,8.501,6.912,7.071,12.247l28.978,7.764C31.623,53.578,18.96,31.643,24.677,10.305420875549316Z" transform="matrix(1,0,0,1,0,0)"></path><path d="M60.176,46.79996871948242L38.962,25.58725929260254c-3.905,3.905,-10.237,3.905,-14.142,0l-21.214,21.213C19.228,31.179,44.554,31.18,60.176,46.79996871948242Z" transform="matrix(1,0,0,1,0,0)"></path><path d="M35.313,12.49489974975586L56.526,33.70811080932617c3.905,-3.905,10.237,-3.905,14.142,0l21.213,-21.213C76.26,28.115,50.933,28.115,35.313,12.49489974975586Z" transform="matrix(1,0,0,1,0,0)"></path><path d="M84.667,0.000003814697265625L55.689,7.764575958251953c1.43,5.335,-1.736,10.818,-7.071,12.247l7.765,28.978C50.665,27.651,63.329,5.717,84.667,0.000003814697265625Z" transform="matrix(1,0,0,1,0,0)"></path><path d="M70.811,48.989803314208984L78.575,20.01202392578125c-5.334,-1.429,-8.5,-6.913,-7.071,-12.247l-28.978,-7.765C63.865,5.717,76.528,27.651,70.811,48.989803314208984Z" transform="matrix(1,0,0,1,0,0)"></path><path d="M88.089,10.305521965026855L80.324,39.28312683105469c5.334,1.429,8.5,6.913,7.071,12.247l28.977,7.764C95.034,53.577,82.371,31.643,88.089,10.305521965026855Z" transform="matrix(1,0,0,1,0,0)"></path><path d="M123.586,46.799896240234375L102.373,25.58649444580078c-3.905,3.906,-10.237,3.906,-14.142,0l-21.213,21.214C82.639,31.179,107.966,31.179,123.586,46.799896240234375Z" transform="matrix(1,0,0,1,0,0)"></path><path d="M74.232,59.29514694213867L103.209,51.53007888793945c-1.429,-5.334,1.737,-10.818,7.071,-12.247l-7.764,-28.978C108.234,31.644,95.57,53.577,74.232,59.29514694213867Z" transform="matrix(1,0,0,1,0,0)"></path><path d="M116.372,54.91593933105469L87.395,62.68033218383789c1.429,5.334,-1.737,10.818,-7.071,12.247l7.765,28.977C82.371,82.567,95.035,60.633,116.372,54.91593933105469Z" transform="matrix(1,0,0,1,0,0)"></path><path d="M102.516,103.90520477294922L110.281,74.92723846435547c-5.335,-1.429,-8.501,-6.912,-7.071,-12.247l-28.978,-7.764C95.57,60.633,108.234,82.567,102.516,103.90520477294922Z" transform="matrix(1,0,0,1,0,0)"></path><path d="M67.018,67.41065979003906L88.231,88.62336730957031c3.905,-3.905,10.237,-3.905,14.142,0l21.214,-21.213C107.966,83.031,82.639,83.031,67.018,67.41065979003906Z" transform="matrix(1,0,0,1,0,0)"></path></g></symbol></defs><rect width="100%" height="100%" id="BgenPttrnRctLayer1" fill="url(#BgenPttrnLayer1)"></rect><rect width="100%" height="100%" id="BgenPttrnRctLayer2" fill="url(#BgenPttrnLayer2)"></rect></svg>
