<svg xmlns="http://www.w3.org/2000/svg" version="1.1" xmlns:xlink="http://www.w3.org/1999/xlink" xmlns:svgjs="http://svgjs.com/svgjs" id="Pattern885SvgRootPreview" width="100%" height="100%"><defs><pattern x="0" y="0" width="1" height="1" patternUnits="userSpaceOnUse" id="Pattern885Layer1"><g id="PatternRootContent1"><g id="Pattern885Layer1background"><rect width="1" height="1" id="Pattern885Background1" class="fill_color_1" fill="#f8f8f5"></rect></g></g></pattern><pattern x="0" y="0" width="120" height="120" patternUnits="userSpaceOnUse" id="Pattern885Layer2"><g id="PatternRootContent2"><g id="Pattern885Layer2Element2"><use xlink:href="#Pattern885Element2" x="80" y="-70" transform="translate(120, -30) scale(0.5) translate(-120, 30) rotate(0, 120, -30)"></use><use xlink:href="#Pattern885Element2" x="-40" y="-70" transform="translate(0, -30) scale(0.5) translate(0, 30) rotate(0, 0, -30)"></use><use xlink:href="#Pattern885Element2" x="20" y="-10" transform="translate(60, 30) scale(0.5) translate(-60, -30) rotate(0, 60, 30)"></use><use xlink:href="#Pattern885Element2" x="-100" y="-10" transform="translate(-60, 30) scale(0.5) translate(60, -30) rotate(0, -60, 30)"></use><use xlink:href="#Pattern885Element2" x="80" y="50" transform="translate(120, 90) scale(0.5) translate(-120, -90) rotate(0, 120, 90)"></use><use xlink:href="#Pattern885Element2" x="-40" y="50" transform="translate(0, 90) scale(0.5) translate(0, -90) rotate(0, 0, 90)"></use><use xlink:href="#Pattern885Element2" x="20" y="110" transform="translate(60, 150) scale(0.5) translate(-60, -150) rotate(0, 60, 150)"></use><use xlink:href="#Pattern885Element2" x="20" y="110" transform="translate(60, 150) scale(0.5) translate(-60, -150) rotate(0, 60, 150)"></use></g></g></pattern><symbol id="Pattern885Element2"><g class="fill_color_3" fill="#76cbdc"><path d="M54.142,20L40,40L25.858,20L40,0Z" transform="matrix(1,0,0,1,0,0)"></path><path d="M60,54.141998291015625L40,40L60,25.857999801635742L80,40Z" transform="matrix(1,0,0,1,0,0)"></path><path d="M25.858,60L40,40L54.142,60L40,80Z" transform="matrix(1,0,0,1,0,0)"></path><path d="M20,25.858001708984375L40,40L20,54.14200210571289L0,40Z" transform="matrix(1,0,0,1,0,0)"></path></g></symbol></defs><rect width="100%" height="100%" id="Pattern885RctLayer1" fill="url(#Pattern885Layer1)"></rect><rect width="100%" height="100%" id="Pattern885RctLayer2" fill="url(#Pattern885Layer2)"></rect></svg>